<svg xmlns="http://www.w3.org/2000/svg"><defs><mask id="a" x="0" y="0" width="101" height="48" maskUnits="userSpaceOnUse"><path d="M31.08 9.76h9.51S34.28 32.4 34 33.62c-.6 2.36-1.2 4.48-6.94 4.48H14.22c-2.37 0-5.17-2.17-4.4-5l6.45-23.34H26s-5.44 19.46-5.54 20-.66 1.9 2.37 1.93c2.18.05 2.35-.53 2.74-1.93zm34.9 0L64.26 16H43.57l1.73-6.24zM37.43 38.11l5-17.87h20.65l-1.72 6.21H50.28L47 38.11zm39-18.35c-.89 3.26-1.67 6.06-2.57 9.34a5.31 5.31 0 00-.47 1.9c.27 1.24 4.38.78 5.87.78h6.6c-.53 2.1-1.12 4.13-1.7 6.18H68.44c-2.3-.22-5.3-1.21-5-4.18a20.23 20.23 0 01.82-3c1.41-5.07 2.85-10.24 4.22-15.22.61-2.21 1.08-4.08 2.81-5a12.58 12.58 0 014.27-.83h15.63c-.55 2.07-1.13 4.12-1.7 6.18h-9c-1.08 0-2.26-.11-2.86.29s-.99 2.66-1.24 3.55z"/></mask></defs><symbol id="arrow-down" viewBox="0 0 32 32"><path d="M24.89 17.45l-7.22 7.22V1h-3.34v23.67l-7.22-7.22-2.37 2.38L16 31l11.26-11.17-2.37-2.38z"/></symbol><symbol id="arrow-left" viewBox="0 0 32 32"><path d="M31 14.33H7.33l7.22-7.22-2.38-2.37L1 16l11.17 11.26 2.38-2.37-7.22-7.22H31v-3.34z"/></symbol><symbol id="arrow-right" viewBox="0 0 32 32"><path d="M19.83 4.74l-2.38 2.37 7.22 7.22H1v3.34h23.67l-7.22 7.22 2.38 2.37L31 16 19.83 4.74z"/></symbol><symbol id="arrow-up" viewBox="0 0 32 32"><path d="M27.26 12.17L16 1 4.74 12.17l2.37 2.38 7.22-7.22V31h3.34V7.33l7.22 7.22 2.37-2.38z"/></symbol><symbol id="caption" viewBox="0 0 32 32"><path d="M1,4H31V28H1ZM15.56,14.31c-.25-1.87-1.25-2.81-2.69-2.81-1.69,0-2.87,1.19-2.87,3.88v1.25c0,2.69,1.19,3.88,2.88,3.88s2.44-.87,2.69-2.81H13.88c-.12.88-.31,1.31-1,1.31s-1.12-.75-1.12-2.37V15.38c0-1.69.38-2.37,1.13-2.37s.94.5,1,1.31Zm7.5,0c-.25-1.87-1.25-2.81-2.69-2.81-1.69,0-2.87,1.19-2.87,3.88v1.25c0,2.69,1.19,3.88,2.88,3.88s2.44-.87,2.69-2.81H21.38c-.12.88-.31,1.31-1,1.31s-1.12-.75-1.12-2.37V15.38c0-1.69.38-2.37,1.13-2.37s.94.5,1,1.31Z"/></symbol><symbol id="chevron-down" viewBox="0 0 32 32"><path d="M27.68,7.14,31,10.38,16,24.86,1,10.38,4.32,7.14,16,18.47Z"/></symbol><symbol id="chevron-left" viewBox="0 0 32 32"><path d="M24.86,4.32,21.63,1,7.14,16,21.63,31l3.24-3.32L13.53,16Z"/></symbol><symbol id="chevron-light-left" viewBox="0 0 32 32"><path d="M24.47,29.06,22.53,31l-15-15,15-15,1.94,1.94L11.41,16Z"/></symbol><symbol id="chevron-light-right" viewBox="0 0 32 32"><path d="M20.68 16L7.53 2.94 9.47 1l15 15-15 15-1.94-1.94z"/></symbol><symbol id="chevron-right" viewBox="0 0 32 32"><path d="M7.14 4.32L10.38 1l14.48 15-14.48 15-3.24-3.32L18.47 16z"/></symbol><symbol id="chevron-up" viewBox="0 0 32 32"><path d="M27.68,24.86,31,21.63,16,7.14,1,21.63l3.32,3.24L16,13.53Z"/></symbol><symbol id="clear" viewBox="0 0 32 32"><path d="M18.06 16l4.22-4.31L20.59 10l-4.31 4.31L12.06 10l-1.69 1.69L14.59 16l-4.22 4.31L12.06 22l4.22-4.31L20.59 22l1.69-1.69zM16 31a15 15 0 1115-15 15 15 0 01-15 15z"/></symbol><symbol id="clock" viewBox="0 0 32 32"><path d="M15.94 1A15 15 0 0131 15.94 15.15 15.15 0 0115.94 31a15 15 0 010-30zm0 27A12 12 0 104 15.94 12 12 0 0015.94 28zm1.55-20.67h-3v9.2l6.22 6.33 2.15-2.15-5.38-5.38z"/></symbol><symbol id="close-light" viewBox="0 0 32 32"><path d="M29.07,1,31,2.93,17.93,16,31,29.07,29.07,31,16,17.93,2.93,31,1,29.07,14.07,16,1,2.93,2.93,1,16,14.07Z"/></symbol><symbol id="close" viewBox="0 0 32 32"><path d="M28.18,1,31,3.92,18.87,16,31,28.18,28.18,31,16,18.87,3.92,31,1,28.18,13.13,16,1,3.92,3.92,1,16,13.13Z"/></symbol><symbol id="comment" viewBox="0 0 32 32"><path d="M1.31,1V25.49H6.82V31l5.51-5.51H30.69V1ZM27.43,22.22H4.57v-18H27.43Z"/></symbol><symbol id="ellipsis-h-regular" viewBox="0 0 512 512"><path d="M304 256c0 26.5-21.5 48-48 48s-48-21.5-48-48 21.5-48 48-48 48 21.5 48 48zm120-48c-26.5 0-48 21.5-48 48s21.5 48 48 48 48-21.5 48-48-21.5-48-48-48zm-336 0c-26.5 0-48 21.5-48 48s21.5 48 48 48 48-21.5 48-48-21.5-48-48-48z"/></symbol><symbol id="email" viewBox="0 0 32 32"><path d="M31,4.75H1v22.5H31v-21M27.13,7.68,16,15.41,4.87,7.68ZM3.81,24.55V10.49L16,18.93l12.19-8.44V24.55Z"/></symbol><symbol id="facebook" viewBox="0 0 32 32"><path d="M23.79 1.23v4.69H21a2.53 2.53 0 00-2.11.7 3.1 3.1 0 00-.59 2V12h5.27l-.7 5.27h-4.58V31h-5.51V17.29H8.21V12h4.57V8a7.1 7.1 0 011.88-5.16 6.72 6.72 0 015-1.87 33.62 33.62 0 014.13.26z"/></symbol><symbol id="fullscreen-off" viewBox="0 0 32 32"><path d="M2.78,17H14.92V29.18h-3V22.3L3.09,30.73,1,28.49l8.89-8.43H2.78ZM29.3,15H17.08V2.82h3V9.7l8.81-8.43L31,3.44l-8.81,8.51h7Z"/></symbol><symbol id="fullscreen" viewBox="0 0 32 32"><path d="M18.86 1.12H31v12.14h-3V6.37l-8.83 8.43-2.09-2.16L26 4.13h-7.14zm-5.64 29.76H1V18.74h3v6.88l8.81-8.43 2.09 2.16-8.8 8.52h7z"/></symbol><symbol id="gallery" viewBox="0 0 32 32"><path d="M12.25,4.75v15h15v-15ZM8.5,1H31V23.5H8.5Zm15,28.13V31H1V8.5H6.63v3.75H4.75v15h15V25.38H23.5Z"/></symbol><symbol id="grid" viewBox="0 0 32 32"><path d="M23.15,23.15H31V31H23.15ZM12,23.15h8V31H12Zm-11,0H8.85V31H1ZM23.15,12H31v8H23.15ZM12,12h8v8H12ZM1,12H8.85v8H1ZM23.15,1H31V8.85H23.15ZM12,1h8V8.85H12ZM1,1H8.85V8.85H1Z"/></symbol><symbol id="icon-android" viewBox="0 0 294 345"><path d="M125.1 77c.7.2 1.5.1 2.2-.3 1.4-.8 1.9-2.5 1.1-3.9L93.1 9c-.8-1.4-2.5-1.9-3.9-1.1-1.4.8-1.9 2.5-1.1 3.9l35.4 63.8c.3.7.9 1.2 1.6 1.4zM266 114.6c-11.2 0-20.4 9.2-20.4 20.4v85c0 11.2 9.2 20.4 20.4 20.4s20.4-9.2 20.4-20.4v-85c0-11.2-9.2-20.4-20.4-20.4zm-85 97c-11.2 0-20.4 9.2-20.4 20.4v85c0 11.2 9.2 20.4 20.4 20.4s20.4-9.2 20.4-20.4v-85c0-11.2-9.2-20.4-20.4-20.4zM204.9 7.9c-.4-.2-.9-.4-1.4-.4-1 0-2 .5-2.5 1.5l-35.4 63.8c-.8 1.4-.3 3.2 1.1 3.9.7.4 1.5.5 2.2.3.7-.2 1.4-.7 1.7-1.4L206 11.8c.8-1.4.3-3.2-1.1-3.9zM28 114.6c-11.2 0-20.4 9.2-20.4 20.4v85c0 11.2 9.2 20.4 20.4 20.4s20.4-9.2 20.4-20.4v-85c0-11.2-9.2-20.4-20.4-20.4zm85 97c-11.2 0-20.4 9.2-20.4 20.4v85c0 11.2 9.2 20.4 20.4 20.4s20.4-9.2 20.4-20.4v-85c0-11.2-9.2-20.4-20.4-20.4z"/><path d="M191.6 37.8l14.4-26c.8-1.4.3-3.2-1.1-3.9-.4-.2-.9-.4-1.4-.4-1 0-2 .5-2.5 1.5l-14.6 26.3C174.5 30 161.1 27 147 27c-14.1 0-27.5 3-39.4 8.3L93.1 9c-.8-1.4-2.5-1.9-3.9-1.1-1.4.8-1.9 2.5-1.1 3.9l14.4 26C74.7 52.2 56 79.6 56 111h182c0-31.4-18.7-58.8-46.4-73.2zM105 77.6c-4.2 0-7.6-3.4-7.6-7.6s3.4-7.6 7.6-7.6 7.6 3.4 7.6 7.6-3.4 7.6-7.6 7.6zm84 0c-4.2 0-7.6-3.4-7.6-7.6s3.4-7.6 7.6-7.6 7.6 3.4 7.6 7.6-3.4 7.6-7.6 7.6zM56 118v132c0 12.2 9.8 22 22 22h14.6v45c0 11.2 9.2 20.4 20.4 20.4s20.4-9.2 20.4-20.4v-45h27.2v45c0 11.2 9.2 20.4 20.4 20.4s20.4-9.2 20.4-20.4v-45H216c12.2 0 22-9.8 22-22V118H56z"/></symbol><symbol id="icon-app-store" viewBox="0 0 103 28"><path d="M19 17.794c-.341 1.092-.887 2.253-1.678 3.455-1.173 1.811-2.346 2.71-3.505 2.71-.464 0-1.091-.153-1.91-.443-.804-.304-1.5-.442-2.06-.442-.545 0-1.2.152-1.936.456-.75.318-1.35.47-1.8.47-1.405 0-2.756-1.203-4.106-3.58C.682 18.043 0 15.734 0 13.468c0-2.115.518-3.83 1.541-5.17 1.023-1.327 2.305-1.99 3.874-1.99.668 0 1.46.138 2.414.414.941.277 1.569.415 1.882.415.396 0 1.05-.152 1.95-.47.901-.304 1.692-.47 2.36-.47 1.092 0 2.06.304 2.906.899.477.331.955.801 1.418 1.382-.709.608-1.227 1.147-1.555 1.63a4.96 4.96 0 00-.886 2.862c0 1.133.314 2.17.94 3.082.628.913 1.351 1.493 2.156 1.742zM13.872 1.58c0 .566-.137 1.202-.396 1.88a5.678 5.678 0 01-1.269 1.907c-.49.497-.982.83-1.473.995-.313.097-.777.18-1.418.235.027-1.368.382-2.557 1.064-3.552.682-.996 1.827-1.673 3.41-2.046.027.124.054.221.068.304 0 .097.014.18.014.277zm24.421 22.293h-2.13l-1.167-3.62H30.94l-1.111 3.62h-2.074l4.018-12.321h2.482l4.038 12.321zm-3.649-5.137l-1.055-3.218c-.112-.328-.32-1.102-.63-2.32h-.037c-.123.523-.32 1.297-.593 2.32l-1.036 3.218h3.351zm13.983.586c0 1.51-.414 2.705-1.241 3.582-.741.78-1.661 1.17-2.76 1.17-1.185 0-2.037-.42-2.556-1.261h-.037v4.68h-2v-9.58c0-.95-.025-1.924-.074-2.924h1.759l.111 1.408h.038c.667-1.061 1.679-1.59 3.037-1.59 1.062 0 1.948.413 2.657 1.242.711.83 1.066 1.92 1.066 3.273zm-2.038.072c0-.865-.197-1.578-.592-2.139-.433-.585-1.013-.878-1.741-.878-.494 0-.942.163-1.343.485a2.242 2.242 0 00-.787 1.27 2.553 2.553 0 00-.092.603v1.48c0 .647.2 1.192.602 1.638.401.445.923.667 1.564.667.754 0 1.34-.287 1.76-.859.42-.573.63-1.328.63-2.267zm12.391-.072c0 1.51-.415 2.705-1.243 3.582-.74.78-1.66 1.17-2.758 1.17-1.186 0-2.038-.42-2.555-1.261h-.038v4.68h-2v-9.58c0-.95-.025-1.924-.074-2.924h1.759l.112 1.408h.037c.666-1.061 1.678-1.59 3.037-1.59 1.061 0 1.947.413 2.658 1.242.709.83 1.064 1.92 1.064 3.273zm-2.038.072c0-.865-.198-1.578-.594-2.139-.432-.585-1.011-.878-1.74-.878-.494 0-.942.163-1.343.485a2.24 2.24 0 00-.786 1.27 2.603 2.603 0 00-.093.603v1.48c0 .647.2 1.192.6 1.638.402.444.923.667 1.567.667.753 0 1.34-.287 1.759-.859.42-.573.63-1.328.63-2.267zm13.612 1.024c0 1.048-.369 1.9-1.109 2.559-.813.72-1.945 1.078-3.4 1.078-1.343 0-2.42-.255-3.235-.767l.463-1.645a5.536 5.536 0 002.891.787c.753 0 1.34-.169 1.76-.504.42-.335.63-.785.63-1.346 0-.5-.173-.921-.52-1.263-.344-.342-.919-.66-1.722-.953-2.185-.804-3.277-1.983-3.277-3.533 0-1.013.383-1.843 1.149-2.49.764-.646 1.782-.97 3.056-.97 1.136 0 2.08.196 2.833.586l-.5 1.609c-.704-.378-1.5-.567-2.39-.567-.703 0-1.252.171-1.646.512-.333.305-.5.676-.5 1.116 0 .487.19.89.573 1.206.333.293.938.61 1.816.95 1.074.428 1.862.927 2.37 1.499.505.57.758 1.284.758 2.136zm6.612-3.948H74.96v4.313c0 1.098.389 1.646 1.167 1.646.358 0 .654-.03.888-.092l.056 1.499c-.394.145-.913.218-1.555.218-.79 0-1.407-.238-1.853-.712-.444-.476-.667-1.274-.667-2.396v-4.478h-1.313v-1.481h1.313V13.36l1.964-.585v2.212h2.205v1.483zm9.945 2.888c0 1.365-.396 2.486-1.186 3.363-.828.903-1.927 1.353-3.298 1.353-1.32 0-2.372-.433-3.156-1.297-.784-.865-1.176-1.957-1.176-3.272 0-1.377.403-2.504 1.213-3.381.807-.878 1.897-1.317 3.268-1.317 1.32 0 2.383.433 3.185 1.298.767.84 1.15 1.924 1.15 3.253zm-2.075.064c0-.82-.177-1.522-.536-2.109-.42-.709-1.019-1.062-1.796-1.062-.803 0-1.414.354-1.833 1.062-.36.587-.537 1.301-.537 2.146 0 .819.177 1.522.537 2.107.432.709 1.036 1.063 1.816 1.063.763 0 1.362-.361 1.795-1.082.368-.597.554-1.307.554-2.125zm8.575-2.697a3.517 3.517 0 00-.63-.055c-.704 0-1.248.262-1.63.787-.333.463-.5 1.048-.5 1.754v4.662h-2l.02-6.086a47.68 47.68 0 00-.075-2.797h1.741l.074 1.7h.055a3.039 3.039 0 011-1.408 2.439 2.439 0 011.445-.476c.185 0 .352.013.5.036v1.883zm8.944 2.285c0 .354-.024.652-.073.896h-6c.024.877.314 1.549.87 2.012.506.413 1.16.62 1.963.62.888 0 1.699-.139 2.428-.42l.313 1.37c-.852.367-1.857.55-3.018.55-1.395 0-2.49-.406-3.288-1.216-.796-.81-1.194-1.898-1.194-3.262 0-1.34.37-2.456 1.112-3.346.777-.95 1.826-1.424 3.147-1.424 1.297 0 2.28.475 2.946 1.424.528.755.794 1.688.794 2.797zm-1.907-.511c.013-.586-.117-1.091-.388-1.518-.347-.549-.878-.823-1.594-.823-.654 0-1.186.268-1.592.805-.333.426-.53.938-.592 1.535h4.166zM33.983 3.972c0 1.09-.331 1.91-.992 2.461-.613.508-1.483.763-2.61.763a12.26 12.26 0 01-1.439-.072V1.17a10.747 10.747 0 011.693-.126c1.074 0 1.884.23 2.43.691.611.522.918 1.267.918 2.237zM32.946 4c0-.706-.189-1.248-.568-1.626-.379-.376-.932-.565-1.661-.565-.31 0-.573.02-.792.063v4.526c.121.019.343.027.664.027.753 0 1.333-.207 1.742-.62.41-.412.615-1.014.615-1.805zm6.533.924c0 .671-.195 1.221-.583 1.653-.407.443-.946.664-1.62.664-.649 0-1.166-.212-1.551-.638-.385-.424-.577-.96-.577-1.607 0-.676.198-1.23.596-1.66.397-.431.932-.647 1.605-.647.65 0 1.171.212 1.566.637.375.413.564.946.564 1.598zm-1.02.032c0-.403-.088-.749-.264-1.037-.206-.348-.5-.522-.881-.522-.395 0-.695.174-.902.522-.176.288-.263.64-.263 1.054 0 .403.088.748.263 1.036.213.348.51.522.892.522.376 0 .67-.177.882-.531.182-.294.273-.642.273-1.044zm8.388-2.178l-1.383 4.364h-.9l-.574-1.895a14.033 14.033 0 01-.355-1.41h-.018c-.085.48-.204.95-.356 1.41l-.608 1.895h-.911L40.44 2.778h1.01l.5 2.075c.121.49.22.958.3 1.4h.018c.073-.364.194-.829.365-1.391l.627-2.083h.801l.602 2.039c.145.497.263.975.354 1.436h.027c.067-.449.167-.927.3-1.436l.537-2.04h.965zm5.096 4.364h-.983v-2.5c0-.77-.296-1.155-.89-1.155a.892.892 0 00-.71.318 1.118 1.118 0 00-.274.748V7.14h-.983V4.025c0-.383-.012-.799-.035-1.249h.864l.045.682h.028a1.41 1.41 0 01.509-.526c.266-.163.565-.246.891-.246.413 0 .756.132 1.029.396.34.323.51.805.51 1.446v2.614zm2.711 0h-.982V.775h.982zm5.787-2.218c0 .671-.194 1.221-.582 1.653-.407.443-.947.664-1.62.664-.65 0-1.167-.212-1.551-.638-.385-.424-.577-.96-.577-1.607 0-.676.198-1.23.595-1.66.398-.431.933-.647 1.605-.647.65 0 1.17.212 1.567.637.375.413.563.946.563 1.598zm-1.02.032c0-.403-.088-.749-.264-1.037-.205-.348-.5-.522-.88-.522-.396 0-.696.174-.902.522-.176.288-.263.64-.263 1.054 0 .403.088.748.263 1.036.213.348.51.522.892.522.375 0 .669-.177.881-.531.183-.294.273-.642.273-1.044zm5.778 2.186h-.883l-.073-.502h-.027c-.302.4-.733.601-1.292.601-.417 0-.755-.132-1.009-.395a1.23 1.23 0 01-.346-.889c0-.533.225-.94.678-1.22.452-.282 1.088-.42 1.907-.414v-.081c0-.575-.306-.862-.918-.862-.436 0-.821.108-1.153.323l-.2-.637c.411-.251.918-.377 1.517-.377 1.155 0 1.735.602 1.735 1.805v1.608c0 .436.022.783.064 1.04zm-1.02-1.5V4.97c-1.085-.018-1.627.275-1.627.88 0 .228.062.398.188.512.127.114.288.17.48.17a.998.998 0 00.602-.202.826.826 0 00.356-.687zm6.606 1.5h-.873l-.046-.7h-.027c-.279.533-.753.8-1.42.8-.533 0-.976-.207-1.328-.62-.352-.413-.527-.949-.527-1.607 0-.707.19-1.279.573-1.716.37-.407.824-.61 1.365-.61.593 0 1.009.196 1.245.592h.019V.775h.984v5.192c0 .424.011.816.035 1.175zm-1.02-1.84v-.728c0-.126-.008-.228-.026-.305a1.102 1.102 0 00-.356-.588.974.974 0 00-.657-.238c-.367 0-.654.143-.865.431-.21.288-.315.656-.315 1.105 0 .431.1.781.302 1.05.213.287.5.431.859.431.323 0 .58-.12.777-.36.189-.22.282-.487.282-.798zm9.427-.378c0 .671-.195 1.221-.583 1.653-.407.443-.945.664-1.62.664-.648 0-1.165-.212-1.551-.638-.385-.424-.577-.96-.577-1.607 0-.676.198-1.23.596-1.66.397-.431.932-.647 1.606-.647.649 0 1.171.212 1.565.637.375.413.564.946.564 1.598zm-1.019.032c0-.403-.088-.749-.264-1.037-.207-.348-.5-.522-.882-.522-.394 0-.694.174-.902.522-.176.288-.263.64-.263 1.054 0 .403.088.748.263 1.036.213.348.51.522.892.522.376 0 .671-.177.883-.531.181-.294.273-.642.273-1.044zm6.304 2.186h-.982v-2.5c0-.77-.296-1.155-.892-1.155a.889.889 0 00-.709.318 1.113 1.113 0 00-.273.748V7.14h-.984V4.025c0-.383-.011-.799-.035-1.249h.863l.046.682h.027c.116-.212.287-.387.51-.526.267-.163.564-.246.892-.246.412 0 .755.132 1.028.396.34.323.51.805.51 1.446v2.614zm6.616-3.637H90.01v2.12c0 .539.193.808.573.808.177 0 .323-.015.438-.045l.026.736c-.194.072-.45.108-.764.108-.388 0-.69-.117-.909-.35-.22-.233-.328-.626-.328-1.177v-2.2H88.4v-.727h.646v-.8l.963-.287v1.086h1.083v.728zm5.204 3.637h-.984v-2.48c0-.783-.297-1.175-.89-1.175-.456 0-.768.227-.938.68-.03.096-.046.213-.046.35V7.14h-.982V.775h.982v2.63h.018c.31-.478.754-.717 1.329-.717.407 0 .743.132 1.01.395.334.33.5.818.5 1.464v2.595zm5.368-2.388c0 .174-.013.32-.037.44H98.68c.013.43.154.76.427.987.25.204.571.306.965.306.436 0 .834-.069 1.192-.207l.154.674c-.42.18-.913.27-1.484.27-.685 0-1.224-.2-1.614-.597-.392-.398-.586-.933-.586-1.603 0-.658.18-1.206.546-1.643.38-.467.895-.7 1.545-.7.636 0 1.12.233 1.446.7.263.37.394.828.394 1.373zm-.938-.251a1.293 1.293 0 00-.19-.746c-.171-.269-.431-.404-.783-.404a.937.937 0 00-.782.395 1.46 1.46 0 00-.292.755h2.047z"/></symbol><symbol id="icon-google-play" viewBox="0 0 106 19"><path d="M62 15h2V3h-2zm24 0h2V3h-2zm-9 0h2V3h-2z"/><path d="M78.758 4.642v3.716h2.494c1.091 0 1.99-.84 1.99-1.858 0-1.019-.899-1.858-1.99-1.858h-2.494zM77 3h4.252C83.313 3 85 4.575 85 6.5S83.313 10 81.252 10H77V3zm23.917 16L106 7h-1.917L99 19z"/><path d="M101.393 17L98 7h1.66l2.34 6.897h-.607zm-7.074-5.403c-.214.918-.935 1.578-1.85 1.824-1.933.52-2.414-2.578.458-2.152.494.058.924.179 1.392.328zm0 3.19h1.672v-3.969c.261-4.093-5-5.056-6.991-2.105l1.345.89c.974-1.678 3.751-1.292 3.934.507-.835-.218-1.737-.376-2.56-.294-1.287.128-2.388.934-2.563 2.254-.094.712.067 1.592.572 2.127.786.835 2.077.947 3.138.662.597-.16 1.068-.51 1.453-.963v.891zM.464.113l9.449 9.4-9.404 9.484c-.274-.173-.421-.55-.424-1.036L0 1.13C-.003.597.192.273.464.113zm12.565 6.259L1.539.126A1.156 1.156 0 001.138 0l9.166 9.12 2.725-2.748zm.51 5.967l-2.842-2.828 2.84-2.863 3.91 2.125c.964.524.47 1.178 0 1.435L13.54 12.34zM1.29 19c.08-.03.163-.068.25-.116l11.492-6.268-2.725-2.71L1.288 19zm33.6-10.083h-6.118v1.77h4.338c-.214 2.481-2.332 3.54-4.33 3.54-2.558 0-4.79-1.962-4.79-4.711 0-2.679 2.127-4.742 4.795-4.742 2.058 0 3.27 1.28 3.27 1.28l1.272-1.284S31.695 3 28.72 3C24.93 3 22 6.117 22 9.484c0 3.3 2.757 6.516 6.816 6.516C32.386 16 35 13.616 35 10.09c0-.743-.11-1.173-.11-1.173zM40.004 7C37.672 7 36 8.831 36 10.967 36 13.135 37.621 15 40.031 15 42.213 15 44 13.325 44 11.014 44 8.364 41.921 7 40.004 7m.023 1.571c1.147 0 2.234.931 2.234 2.432 0 1.469-1.083 2.427-2.24 2.427-1.27 0-2.273-1.023-2.273-2.438 0-1.386.99-2.42 2.279-2.42M48.004 7C45.67 7 44 8.831 44 10.967 44 13.135 45.621 15 48.031 15 50.213 15 52 13.325 52 11.014 52 8.364 49.921 7 48.004 7m.023 1.571c1.147 0 2.234.931 2.234 2.432 0 1.469-1.083 2.427-2.24 2.427-1.27 0-2.273-1.023-2.273-2.438 0-1.386.99-2.42 2.279-2.42M57.503 7C55.542 7 54 8.948 54 11.135c0 2.491 1.787 4.143 3.469 4.143 1.04 0 1.593-.468 2.001-1.006v.816c0 1.428-.764 2.283-1.918 2.283-1.114 0-1.673-.94-1.868-1.473l-1.402.665C54.78 17.756 55.781 19 57.564 19 59.514 19 61 17.607 61 14.685V7.25h-1.53v.7C59 7.376 58.357 7 57.503 7zm.142 1.622c.961 0 1.949.932 1.949 2.522 0 1.616-.986 2.507-1.97 2.507-1.046 0-2.019-.963-2.019-2.492 0-1.588 1.01-2.537 2.04-2.537zM68.56 7C66.625 7 65 8.612 65 10.99c0 2.517 1.811 4.01 3.746 4.01 1.615 0 2.606-.925 3.198-1.754l-1.32-.919c-.342.557-.915 1.1-1.87 1.1-1.073 0-1.566-.615-1.872-1.21L72 9.992l-.266-.651C71.24 8.066 70.087 7 68.56 7zm.067 1.537c.697 0 1.2.388 1.412.853l-3.418 1.496c-.147-1.158.901-2.35 2.006-2.35z"/></symbol><symbol id="icon-ios" viewBox="0 0 170 170"><path d="M150.37 130.25c-2.45 5.66-5.35 10.87-8.71 15.66-4.58 6.53-8.33 11.05-11.22 13.56-4.48 4.12-9.28 6.23-14.42 6.35-3.69 0-8.14-1.05-13.32-3.18-5.197-2.12-9.973-3.17-14.34-3.17-4.58 0-9.492 1.05-14.746 3.17-5.262 2.13-9.501 3.24-12.742 3.35-4.929.21-9.842-1.96-14.746-6.52-3.13-2.73-7.045-7.41-11.735-14.04-5.032-7.08-9.169-15.29-12.41-24.65-3.471-10.11-5.211-19.9-5.211-29.378 0-10.857 2.346-20.221 7.045-28.068 3.693-6.303 8.606-11.275 14.755-14.925s12.793-5.51 19.948-5.629c3.915 0 9.049 1.211 15.429 3.591 6.362 2.388 10.447 3.599 12.238 3.599 1.339 0 5.877-1.416 13.57-4.239 7.275-2.618 13.415-3.702 18.445-3.275 13.63 1.1 23.87 6.473 30.68 16.153-12.19 7.386-18.22 17.731-18.1 31.002.11 10.337 3.86 18.939 11.23 25.769 3.34 3.17 7.07 5.62 11.22 7.36-.9 2.61-1.85 5.11-2.86 7.51zM119.11 7.24c0 8.102-2.96 15.667-8.86 22.669-7.12 8.324-15.732 13.134-25.071 12.375a25.222 25.222 0 01-.188-3.07c0-7.778 3.386-16.102 9.399-22.908 3.002-3.446 6.82-6.311 11.45-8.597 4.62-2.252 8.99-3.497 13.1-3.71.12 1.083.17 2.166.17 3.24z"/></symbol><symbol id="icon-playstation" viewBox="0 0 200 154.819" preserveAspectRatio="xMidYMid"><path d="M197.24 117.962c-3.869 4.88-13.344 8.36-13.344 8.36l-70.492 25.32V132.97l51.877-18.484c5.887-2.11 6.791-5.091 2.006-6.657-4.776-1.57-13.425-1.12-19.316.999l-34.567 12.174v-19.379l1.993-.674s9.988-3.535 24.034-5.091c14.045-1.547 31.242.211 44.743 5.329 15.215 4.808 16.928 11.895 13.065 16.775zm-77.125-31.796V38.413c0-5.608-1.035-10.77-6.297-12.232-4.03-1.291-6.53 2.45-6.53 8.054V153.82l-32.25-10.236V1c13.712 2.545 33.69 8.563 44.429 12.183 27.312 9.377 36.572 21.048 36.572 47.344 0 25.63-15.821 35.344-35.924 25.639zM15.862 131.018c-15.62-4.399-18.219-13.564-11.1-18.844 6.58-4.875 17.77-8.545 17.77-8.545l46.241-16.442v18.745L35.497 117.84c-5.878 2.109-6.782 5.095-2.005 6.66 4.78 1.565 13.433 1.12 19.32-.994l15.961-5.792v16.77c-1.012.18-2.14.36-3.184.535-15.966 2.609-32.97 1.52-49.727-4.002zm171.105 7.425c2.02 0 3.913.782 5.339 2.226a7.487 7.487 0 012.212 5.334 7.472 7.472 0 01-2.212 5.334 7.465 7.465 0 01-5.339 2.217 7.472 7.472 0 01-5.338-2.217 7.467 7.467 0 01-2.208-5.334c0-4.165 3.382-7.56 7.546-7.56zm-6.278 7.56c0 1.677.652 3.256 1.84 4.434a6.2 6.2 0 004.438 1.844 6.281 6.281 0 006.279-6.278c0-1.682-.648-3.26-1.84-4.444a6.195 6.195 0 00-4.439-1.839 6.195 6.195 0 00-4.439 1.84 6.227 6.227 0 00-1.839 4.443zm8.558-4.07c.828.364 1.246 1.066 1.246 2.064 0 .513-.108.944-.328 1.282-.158.243-.382.44-.634.611.198.117.373.257.503.419.18.233.284.607.297 1.115l.04 1.075c.014.288.032.508.077.643.045.198.13.324.239.364l.112.054v.49h-1.628l-.054-.094a1.477 1.477 0 01-.108-.328 5.105 5.105 0 01-.058-.657l-.068-1.336c-.018-.463-.175-.75-.472-.904-.185-.085-.49-.125-.904-.125h-2.29v3.444h-1.461v-8.405h3.904c.638 0 1.174.094 1.587.288zm-4.03 3.386h2.33c.468 0 .841-.085 1.107-.26.243-.176.36-.495.36-.959 0-.503-.167-.832-.518-1.007-.193-.094-.463-.148-.805-.148h-2.473v2.374z"/></symbol><symbol id="icon-xbox" viewBox="0 0 372.368 372.573"><path d="M167.617 371.807c-28.683-2.747-57.723-13.048-82.669-29.324-20.904-13.64-25.625-19.246-25.625-30.435 0-22.475 24.712-61.84 66.993-106.716 24.012-25.486 57.46-55.36 61.077-54.55 7.03 1.572 63.25 56.41 84.297 82.224 33.28 40.822 48.58 74.246 40.808 89.147-5.91 11.328-42.573 33.467-69.508 41.973-22.2 7.01-51.356 9.98-75.373 7.68zM31.09 288.68C13.72 262.03 4.942 235.795.705 197.848c-1.4-12.53-.898-19.697 3.177-45.415C8.96 120.38 27.215 83.297 49.149 60.476c9.342-9.72 10.176-9.957 21.563-6.12 13.829 4.658 28.596 14.857 51.499 35.566l13.362 12.083-7.297 8.964c-33.872 41.612-69.63 100.597-83.105 137.09-7.326 19.838-10.281 39.752-7.129 48.043 2.128 5.597.173 3.51-6.953-7.422zm304.916 4.533c1.716-8.377-.455-23.763-5.542-39.28-11.016-33.606-47.84-96.124-81.652-138.63l-10.645-13.382 11.516-10.574c15.036-13.806 25.476-22.074 36.74-29.094 8.89-5.54 21.592-10.445 27.052-10.445 3.366 0 15.217 12.299 24.784 25.72 14.817 20.789 25.718 45.988 31.24 72.22 3.569 16.95 3.866 53.232.575 70.14-2.7 13.876-8.403 31.875-13.966 44.082-4.168 9.146-14.535 26.91-19.078 32.69-2.336 2.972-2.338 2.966-1.024-3.447zM170.689 45.463c-15.602-7.923-39.67-16.428-52.965-18.716-4.661-.802-12.612-1.25-17.67-.994-10.969.554-10.479-.02 7.119-8.334 14.63-6.912 26.833-10.976 43.4-14.455 18.636-3.913 53.666-3.959 72.005-.094 19.808 4.174 43.133 12.854 56.276 20.942l3.907 2.404-8.963-.453c-17.81-.899-43.766 6.296-71.632 19.858-8.406 4.09-15.718 7.357-16.25 7.26-.533-.098-7.385-3.436-15.227-7.419z"/></symbol><symbol id="instagram" viewBox="0 0 32 32"><path d="M11 16a5 5 0 115 5 5 5 0 01-5-5m-2.7 0A7.73 7.73 0 1016 8.27 7.8 7.8 0 008.27 16m13.94-8A1.8 1.8 0 0024 9.79 1.83 1.83 0 0025.84 8 1.85 1.85 0 0024 6.16 1.83 1.83 0 0022.21 8M9.91 28.19a6.08 6.08 0 01-2.7-.47 4.64 4.64 0 01-1.76-1.17 4.64 4.64 0 01-1.17-1.76 6.08 6.08 0 01-.47-2.7C3.7 20.45 3.7 20 3.7 16s0-4.45.12-6.09a6.08 6.08 0 01.47-2.7 4.64 4.64 0 011.16-1.76 4.64 4.64 0 011.76-1.17 6.08 6.08 0 012.7-.47C11.55 3.7 12 3.7 16 3.7s4.45 0 6.09.12a6.08 6.08 0 012.7.47 4.64 4.64 0 011.76 1.17 4.64 4.64 0 011.17 1.76 6.08 6.08 0 01.47 2.7c.12 1.64.12 2.11.12 6.09s0 4.45-.12 6.09a6.08 6.08 0 01-.47 2.7 5.39 5.39 0 01-2.93 2.93 6.08 6.08 0 01-2.7.47c-1.64.12-2.11.12-6.09.12s-4.45 0-6.09-.12M9.79 1.12a10 10 0 00-3.63.7 8.34 8.34 0 00-2.7 1.64 8.34 8.34 0 00-1.64 2.7 10 10 0 00-.7 3.63C1 11.43 1 11.9 1 16s0 4.57.12 6.21a10 10 0 00.7 3.63 8.34 8.34 0 001.64 2.7 8.34 8.34 0 002.7 1.64 10 10 0 003.63.7C11.43 31 11.9 31 16 31s4.57 0 6.21-.12a10 10 0 003.63-.7 8.34 8.34 0 002.7-1.64 8.34 8.34 0 001.64-2.7 10 10 0 00.7-3.63C31 20.57 31 20.1 31 16s0-4.57-.12-6.21a10 10 0 00-.7-3.63 8.34 8.34 0 00-1.64-2.7 8.34 8.34 0 00-2.7-1.64 10 10 0 00-3.63-.7C20.57 1 20.1 1 16 1s-4.57 0-6.21.12"/></symbol><symbol id="link" viewBox="0 0 32 32"><path d="M9.67 4.28l7.85 7.85 2-1.87-8.79-8.91a1.59 1.59 0 00-2 0L1.35 8.73a1.59 1.59 0 000 2l8.91 8.79 1.88-2-7.86-7.85zm21 17l-8.91-8.79-1.87 2 7.85 7.85-5.39 5.39-7.85-7.85-2 1.88 8.79 8.91a1.89 1.89 0 001.05.35 1.33 1.33 0 00.94-.35l7.38-7.38a1.59 1.59 0 00-.01-2.02zM9.55 11.43l11 11 1.88-1.87-11-11z"/></symbol><symbol id="messenger" viewBox="0 0 32 32"><path d="M16 1C7.75 1 1 7.19 1 14.88a13.55 13.55 0 005.63 10.87V31l5.06-2.81a16.49 16.49 0 004.31.56c8.25 0 15-6.19 15-13.87S24.25 1 16 1zm1.5 18.75l-3.84-4.12-7.41 4.12L14.41 11l3.94 4 7.31-4z"/></symbol><symbol id="pause" viewBox="0 0 32 32"><path d="M4.75,1h7.5V31H4.75Zm15,0h7.5V31h-7.5Z"/></symbol><symbol id="pinterest" viewBox="0 0 32 32"><path d="M14.47 1.09c-5 .56-10 4.61-10.16 10.35-.09 3.57.85 6.21 4.23 7 1.41-2.63-.47-3.2-.75-5C6.57 5.79 16.54.62 21.81 5.89c3.57 3.67 1.22 15-4.61 13.83-5.64-1.13 2.73-10.16-1.69-11.95-3.67-1.41-5.64 4.42-3.86 7.34-1 5-3.2 9.69-2.35 15.9 2.92-2.07 3.86-6 4.61-10.16 1.41.94 2.26 1.79 4 2 6.77.47 10.53-6.77 9.59-13.45-.8-5.96-6.72-8.97-13.03-8.31z"/></symbol><symbol id="play" viewBox="0 0 32 32"><path d="M3.05,1l25.9,15L3.05,31Z"/></symbol><symbol id="podcast" viewBox="0 0 32 32"><path d="M16 1A15 15 0 005.57 5.22a13.6 13.6 0 00-4.06 10.16 14 14 0 004.77 9.84 1.07 1.07 0 001.41-.08 1 1 0 00-.08-1.33 12.19 12.19 0 01-4.15-8.51A11.9 11.9 0 017 6.55a12.77 12.77 0 019-3.67 12.64 12.64 0 019 3.67 11.32 11.32 0 013.52 8.75 11.8 11.8 0 01-4.06 8.52.9.9 0 00-.08 1.33 1.07 1.07 0 001.41.08 14 14 0 004.77-9.84 13.6 13.6 0 00-4.13-10.17A15 15 0 0016 1zm0 6.41a8.55 8.55 0 00-5.9 2.34 8 8 0 00-2.42 5.55 8.17 8.17 0 001.64 4.77 1.06 1.06 0 001.41.16.91.91 0 00.27-1.34 5.45 5.45 0 01-1.29-3.59 5.84 5.84 0 013.13-5.16 6.51 6.51 0 016.33 0 5.84 5.84 0 013.13 5.16 5.9 5.9 0 01-1.3 3.59.91.91 0 00.23 1.33 1 1 0 001.33-.16 7.61 7.61 0 001.64-4.69 7.75 7.75 0 00-2.42-5.62A8.55 8.55 0 0016 7.41zm3.28 7.42a3.24 3.24 0 01-6.48 0 3.25 3.25 0 016.48 0m-2.58 5.55h-1.36a2.53 2.53 0 00-2.58 2.5v.31L15 30.3a1.09 1.09 0 001 .7.94.94 0 00.94-.7l2.27-7.11a.47.47 0 00.08-.31 2.64 2.64 0 00-2.63-2.5z"/></symbol><symbol id="reddit" viewBox="0 0 32 32"><path d="M16 31a15 15 0 1115-15 15 15 0 01-15 15zm10-15a2.2 2.2 0 00-2.23-2.11 1.94 1.94 0 00-1.41.59 11.56 11.56 0 00-5.86-1.87l1.05-4.69 3.16.7A1.64 1.64 0 0022.33 10a1.64 1.64 0 001.41-1.64A1.47 1.47 0 0022.09 7a1.69 1.69 0 00-1.17.7L17.17 7c-.23 0-.47.12-.47.35 0 0-.35 1.76-1.17 5.27a10.43 10.43 0 00-5.86 1.76 2.2 2.2 0 00-3 .12 2.23 2.23 0 00.12 3.16 2.56 2.56 0 00.59.35v.7c0 3.28 3.87 6.09 8.67 6.09s8.74-2.8 8.74-6.1V18A2.27 2.27 0 0026 16zm-6.21 5.63A6.19 6.19 0 0116 22.8a6.44 6.44 0 01-3.75-1.17.41.41 0 01.12-.59.36.36 0 01.47 0A4.42 4.42 0 0016 22a4.42 4.42 0 003.16-1 .52.52 0 01.59 0 .75.75 0 010 .7zM11 17.52A1.52 1.52 0 1112.48 19 1.55 1.55 0 0111 17.52zm7 0A1.48 1.48 0 0119.52 16a1.53 1.53 0 010 3A1.48 1.48 0 0118 17.52z"/></symbol><symbol id="search" viewBox="0 0 512 512"><path d="M496 458.5L379.8 342.2C440.7 262.5 435.1 148.1 362 75c-38.5-38.4-89.1-59-143.5-59-53.4 0-105 20.6-143.4 59.1S16 165.1 16 218.5c0 54.4 20.6 105 59.1 143.4s90 60 143.4 60c45 0 88.1-15 123.8-42.2L458.5 496l37.5-37.5zm-277.5-90c-39.4 0-76.9-15.9-105-44.1s-44.1-65.6-44.1-105.9c0-39.4 15.9-76.9 44.1-105s65.6-44.1 105-44.1c40.3 0 77.8 15.9 105.9 44.1 58.1 58.1 58.1 152.8 0 210.9-28.1 28.2-65.6 44.1-105.9 44.1z"/></symbol><symbol id="share" viewBox="0 0 32 32"><path d="M23.34 3.1L31 9.29l-7.66 6.19v-2.94c-.42 0-7.34-.52-12.17 4 1.89-6.4 8-9.34 12.17-10.49zM1 2.57h21.4A39.32 39.32 0 0015.16 6H4.36v20h19v-7.17l1.89-1.47 1.47-1.15v13.22H1z"/></symbol><symbol id="snapchat" viewBox="0 0 32 32"><path d="M16.16 30.07h-.33a6.5 6.5 0 01-4.07-1.54 5.21 5.21 0 00-2.31-1.21 4.93 4.93 0 00-1.21-.11 6.89 6.89 0 00-1.76.22h-.53c-.22 0-.44 0-.44-.22a7 7 0 00-.22-.77c-.11-.55-.22-.88-.44-1C2 25 1.22 24.46 1 24v-.11c0-.22.11-.33.22-.33 4.4-.77 6.26-5.16 6.37-5.38a1.73 1.73 0 00.22-1.43c-.33-.66-1.32-1-2-1.21-.11 0-.22-.11-.44-.11-1.21-.55-1.32-1-1.32-1.32a1.35 1.35 0 011.21-.77c.11 0 .22.11.33.11a4.72 4.72 0 001.54.44 1.83 1.83 0 001-.33A2.42 2.42 0 018 12.7c-.11-2.09-.22-4.62.33-6a7.94 7.94 0 017.36-4.73h.55a7.73 7.73 0 017.25 4.73c.66 1.43.55 4 .44 6v.11a1.87 1.87 0 00-.11.77 2.65 2.65 0 00.88.33 4.19 4.19 0 001.43-.44.66.66 0 01.44-.11c.22 0 .33.11.55.11a1.31 1.31 0 01.77.77c0 .33-.33.77-1.43 1.21-.11 0-.22.11-.44.11-.55.22-1.54.55-1.87 1.21a2.19 2.19 0 00.11 1.43h.11c0 .22 2 4.62 6.26 5.38a.29.29 0 01.33.33.11.11 0 01-.11.11c-.11.44-1 1-3.74 1.43-.22.11-.33.33-.44 1-.11.22-.11.44-.22.66s-.22.33-.44.33a1.93 1.93 0 01-.66-.11c-.44 0-1-.11-1.65-.11a4.51 4.51 0 00-1.21.11 5.21 5.21 0 00-2.31 1.21 6.77 6.77 0 01-4.07 1.54"/></symbol><symbol id="text" viewBox="0 0 32 32"><path d="M1,22.21V18.46H24v3.75ZM1,31V27.25H31V31ZM1,13.54V9.79H31v3.75ZM1,4.75V1H24V4.75Z"/></symbol><symbol id="tick-filled" viewBox="0 0 32 31"><path d="M16 30.5a15 15 0 1115-15 15 15 0 01-15 15zm-3.75-11.91l-3.09-3.18L7 17.56l5.25 5.25 11.44-11.15-2.06-2.16z"/></symbol><symbol id="trash" viewBox="0 0 32 32"><path d="M4.89,31H27.11l.11-23.67h3V4.89H21.56V1H10.44V4.89H1.78V7.33H4.89Zm19.78-2.44H7.33V7.33H24.67ZM12.89,3.44h6.22V4.89H12.89Zm1.89,21.89V11.11h2.44V25.33Zm-4.56,0V11.11h2.44V25.33Zm9.11,0V11.11h2.44V25.33Z"/></symbol><symbol id="triangle-down" viewBox="0 0 32 32"><path d="M1.33,6.69c-.32,0-.47.16-.16.32L15.72,25.19c.16.16.32.16.63,0L30.9,7c.16-.16.16-.32-.16-.32Z"/></symbol><symbol id="triangle-left" viewBox="0 0 32 32"><path d="M25.93 31.65c0 .34-.17.51-.34.17L6.2 16.3c-.2-.17-.2-.3 0-.67L25.59.11c.17-.17.34-.17.34.17z"/></symbol><symbol id="triangle-right" viewBox="0 0 32 32"><path d="M6.69,30.67c0,.32.16.47.32.16L25.19,16.28c.16-.16.16-.32,0-.63L7,1.1c-.16-.16-.32-.16-.32.16Z"/></symbol><symbol id="triangle-up" viewBox="0 0 32 32"><path d="M1.33,25.31c-.32,0-.47-.16-.16-.32L15.72,6.81c.16-.16.32-.16.63,0L30.9,25c.16.16.16.32-.16.32Z"/></symbol><symbol id="twitter" viewBox="0 0 32 32"><path d="M31 6.67a14.13 14.13 0 01-3 3.23v.76a17.34 17.34 0 01-.76 5A16.48 16.48 0 0125 20.38a15.66 15.66 0 01-3.52 4 15.06 15.06 0 01-4.86 2.76 18.76 18.76 0 01-6.19 1A17.32 17.32 0 011 25.43a7.7 7.7 0 001.52.1 11.81 11.81 0 007.62-2.67 5.57 5.57 0 01-3.62-1.24 6.47 6.47 0 01-2.19-3 5.86 5.86 0 001.24.1 5 5 0 001.62-.19 5.64 5.64 0 01-3.52-2.1 6 6 0 01-1.43-3.9v-.1a5.74 5.74 0 002.76.71A5.55 5.55 0 013 11a6.19 6.19 0 01-.76-3 5.91 5.91 0 01.86-3 17.48 17.48 0 005.61 4.52 18 18 0 007 1.81 6.75 6.75 0 01-.1-1.33 5.9 5.9 0 011.81-4.38 5.55 5.55 0 014.29-1.81 5.89 5.89 0 014.48 1.9 10.67 10.67 0 003.9-1.43 5.8 5.8 0 01-2.67 3.33A9.74 9.74 0 0031 6.67z"/></symbol><symbol id="ufc-logo" viewBox="0 0 341 119"><path d="M89.9.7h39.7s-26.4 94.3-27.7 99.4c-2.5 9.8-5 18.7-29 18.7-28.9 0-45.7-.1-53.6 0-9.9.1-21.6-9-18.4-20.8L28 .7h40.5S45.8 81.8 45.3 83.9c-.4 2.1-2.7 7.9 9.9 8 9.1.2 9.8-2.2 11.4-8C70.4 70.8 89.9.7 89.9.7zm145.8 0l-7.2 25.9h-86.4L149.3.7h86.4zM116.4 118.8l20.7-74.5h86.4l-7.2 25.9H170l-13.5 48.6h-40.1zm162.8-76.5c-3.7 13.6-7 25.2-10.7 38.9-.7 2.4-2.3 5.9-1.8 8.1 1.1 5.2 18.3 3.2 24.5 3.2h27.6c-2.2 8.7-4.7 17.2-7.1 25.7H246c-9.6-.9-22.1-5-20.9-17.4.4-3.9 2.2-8.3 3.4-12.6 5.9-21.1 11.9-42.7 17.6-63.4 2.5-9.2 4.5-17 11.8-20.7 4.7-2.4 12.2-3.1 17.8-3.4H341c-2.3 8.6-4.7 17.2-7.1 25.7h-37.5c-4.5 0-9.5-.5-12 1.2-2.7 2-4.2 11-5.2 14.7z"/></symbol><symbol id="ufc-store-logo" viewBox="0 0 177.94 60.05"><g data-name="Store-+-Fight-pass"><g data-name="1-copy"><path d="M94.11 46.3l2.21-.19a4.9 4.9 0 00.73 2.18 4 4 0 001.79 1.38 6.75 6.75 0 002.72.53 6.52 6.52 0 002.37-.4 3.29 3.29 0 001.53-1.09 2.54 2.54 0 00.5-1.52 2.31 2.31 0 00-.48-1.46 3.6 3.6 0 00-1.6-1 31.38 31.38 0 00-3.16-.87 16.11 16.11 0 01-3.42-1.11 4.8 4.8 0 01-1.89-1.65 4.06 4.06 0 01-.62-2.21 4.51 4.51 0 01.76-2.51 4.73 4.73 0 012.23-1.77A8.45 8.45 0 01101 34a8.89 8.89 0 013.48.64 5 5 0 012.32 1.87 5.38 5.38 0 01.87 2.8l-2.25.17a3.63 3.63 0 00-1.23-2.54 4.78 4.78 0 00-3.09-.86 5 5 0 00-3.1.78 2.34 2.34 0 00-1 1.88 2 2 0 00.69 1.57 9.35 9.35 0 003.54 1.26 23.32 23.32 0 013.93 1.13 5.38 5.38 0 012.29 1.81 4.42 4.42 0 01.74 2.52 4.82 4.82 0 01-.81 2.67 5.33 5.33 0 01-2.33 1.95 8.12 8.12 0 01-3.42.7 10.22 10.22 0 01-4-.7 5.65 5.65 0 01-2.55-2.11 6 6 0 01-.97-3.24zM116 52V36.35h-5.85v-2.09h14.06v2.09h-5.87V52zm9.42-8.64a9.64 9.64 0 012.37-6.92 8.07 8.07 0 016.12-2.5 8.49 8.49 0 014.43 1.17 7.66 7.66 0 013 3.27 10.64 10.64 0 011 4.76A10.45 10.45 0 01141.3 48a7.42 7.42 0 01-3.09 3.22 8.81 8.81 0 01-4.31 1.1 8.39 8.39 0 01-4.48-1.21 7.79 7.79 0 01-3-3.3 10 10 0 01-1-4.45zm2.42 0a7.11 7.11 0 001.72 5.05 6 6 0 008.69 0 7.54 7.54 0 001.75-5.27 9.08 9.08 0 00-.73-3.78 5.63 5.63 0 00-2.14-2.51 5.81 5.81 0 00-3.17-.89 6 6 0 00-4.29 1.71q-1.83 1.72-1.83 5.73zM145.45 52V34.26h7.87a10.48 10.48 0 013.61.48 4 4 0 012 1.69 5 5 0 01.74 2.67 4.46 4.46 0 01-1.22 3.18 6.18 6.18 0 01-3.78 1.65 6.09 6.09 0 011.42.88 12.21 12.21 0 011.91 2.36l3.09 4.83h-3l-2.35-3.69q-1-1.6-1.69-2.44a5.35 5.35 0 00-1.19-1.19 3.53 3.53 0 00-1.07-.47 7 7 0 00-1.31-.08h-2.68V52zm2.35-9.91h5a7.54 7.54 0 002.52-.33 2.67 2.67 0 001.38-1.06 2.88 2.88 0 00.47-1.59 2.64 2.64 0 00-.87-2.11 4.28 4.28 0 00-2.89-.81h-5.61zM163.36 52V34.26h12.83v2.09h-10.48v5.43h9.82v2.08h-9.82v6h10.89V52zm-155-8h76.19l-1.36 3.19H7L8.36 44z"/><g data-name="Brand/Logos/UFC"><g data-name="ufc logo"><g data-name="Brand/Colors/Red"><g data-name="Mask"><path data-name="path-1" d="M31.08 9.76h9.51S34.28 32.4 34 33.62c-.6 2.36-1.2 4.48-6.94 4.48H14.22c-2.37 0-5.17-2.17-4.4-5l6.45-23.34H26s-5.44 19.46-5.54 20-.66 1.9 2.37 1.93c2.18.05 2.35-.53 2.74-1.93zm34.9 0L64.26 16H43.57l1.73-6.24zM37.43 38.11l5-17.87h20.65l-1.72 6.21H50.28L47 38.11zm39-18.35c-.89 3.26-1.67 6.06-2.57 9.34a5.31 5.31 0 00-.47 1.9c.27 1.24 4.38.78 5.87.78h6.6c-.53 2.1-1.12 4.13-1.7 6.18H68.44c-2.3-.22-5.3-1.21-5-4.18a20.23 20.23 0 01.82-3c1.41-5.07 2.85-10.24 4.22-15.22.61-2.21 1.08-4.08 2.81-5a12.58 12.58 0 014.27-.83h15.63c-.55 2.07-1.13 4.12-1.7 6.18h-9c-1.08 0-2.26-.11-2.86.29s-.99 2.66-1.24 3.55z"/></g><g mask="url(#a)"><path d="M0 0h101v48H0z" data-name="Rectangle"/></g></g><path d="M16.27 0h9.69v9.72h-9.69zM0 28.56h9.69v9.72H0zm18.19 9.6h9.69v9.72h-9.69zm73-28.32h9.69v9.72h-9.69z"/></g></g></g></g></symbol><symbol id="video" viewBox="0 0 32 32"><path d="M4.75,4.75v22.5h22.5V4.75ZM1,1H31V31H1Zm11.25,9.38L22,16l-9.73,5.63Z"/></symbol><symbol id="volume-full" viewBox="0 0 512 512"><path d="M128 107v234l112 75V32zM16 320h80V128H16zM288 0v33c94 18 160 95 160 191 0 95-64 170-160 191v33c108-16 192-110 192-224 0-115-84-208-192-224zm96 222c0-56-42-102-96-110v32c37 7 64 40 64 78 0 39-27 71-64 79v32c54-8 96-54 96-111z"/></symbol><symbol id="volume-off" viewBox="0 0 32 32"><path d="M31 11.76l-1.46-1.46-4.24 4.24-4.24-4.24-1.46 1.46L23.85 16l-4.24 4.24 1.46 1.46 4.24-4.24 4.24 4.24L31 20.24 26.76 16zM8.09 8.59v14.82l7.09 4.75V3.85zM1 22.08h5.06V9.92H1z"/></symbol><symbol id="volume-on" viewBox="0 0 32 32"><path d="M10.38 6.86v18.28L19.13 31V1zM1.63 23.5h6.25v-15H1.63zm28.75-7.66a8.74 8.74 0 00-7.5-8.59v2.5a6.2 6.2 0 015 6.09 6.28 6.28 0 01-5 6.17v2.5a8.76 8.76 0 007.5-8.67z"/></symbol><symbol id="youtube" viewBox="0 0 32 32"><path d="M30.73 9.5s.27 2.67.27 5.34v2.4c0 2.58-.27 5.25-.27 5.25a8.65 8.65 0 01-1.16 3.2 4.44 4.44 0 01-3 1.34c-4.18.36-10.5.36-10.5.36s-7.83-.09-10.24-.27a5.54 5.54 0 01-3.32-1.42 7.8 7.8 0 01-1.25-3.2S1 19.92 1 17.25v-2.4c0-2.67.27-5.34.27-5.34A6.65 6.65 0 012.51 6.3 4.3 4.3 0 015.54 5C9.72 4.69 16 4.61 16 4.61s6.32.09 10.5.36a4.44 4.44 0 013 1.34 8.65 8.65 0 011.23 3.19zm-18.34 1.25V22l9.88-5.43z"/></symbol></svg>